# xmcd CD database file
#
# Track frame offsets:
#	150
#	23037
#	47400
#	62782
#	80760
#	100357
#	124375
#	161077
#	185445
#
# Disc length: 2709 seconds
#
# Revision: 0
# Processed by: cddbd v1.4PL0 Copyright (c) Steve Scherf et al.
# Submitted via: CDex 1.51
#
DISCID=770a9309
DTITLE=Helen Humes - Helen Humes and the Muse All Stars
DYEAR=1900
DGENRE=Blues
TTITLE0=I'm Gonna Move to the Outskirts of Town
TTITLE1=These Foolish Things
TTITLE2=Woe Is Me
TTITLE3=I've Got a Crush on You
TTITLE4=Body and Soul
TTITLE5=My Old Flame
TTITLE6=Loud Talking Woman
TTITLE7=These Foolish Things [Alternate Take]
TTITLE8=I've Got a Crush on You [Alternate Take]
EXTD=
EXTT0=
EXTT1=
EXTT2=
EXTT3=
EXTT4=
EXTT5=
EXTT6=
EXTT7=
EXTT8=
PLAYORDER=
